<?xml version="1.0" encoding="utf-8"?>
<!-- Generator: Adobe Illustrator 25.0.0, SVG Export Plug-In . SVG Version: 6.00 Build 0)  -->
<svg version="1.1" id="Calque_1" xmlns="http://www.w3.org/2000/svg" xmlns:xlink="http://www.w3.org/1999/xlink" x="0px" y="0px"
	 viewBox="0 0 1024 1024" style="enable-background:new 0 0 1024 1024;" xml:space="preserve">
<style type="text/css">
	.st0{fill:none;}
	.st1{fill:#FFA000;}
</style>
<g>
	<rect x="329.2" y="501.9" class="st0" width="220.2" height="156.3"/>
	<path class="st1" d="M550.4,158.1h-278v447.5h177.5V334.9h76.1c45.6-0.6,81.7,14.2,108.2,44.7c26.5,30.4,39.7,71.2,39.7,122.3
		c0,51.1-13.2,91.7-39.7,121.8c-4.3,4.9,4.9-4.1,0,0L437,845.6h113.4c85.6,0,157.2-33.2,214.7-99.7c57.5-66.4,86.2-147.8,86.2-244.1
		c0-95.6-28.7-176.8-86.2-243.6C707.6,191.5,636.1,158.1,550.4,158.1z"/>
	<path class="st1" d="M176.5,669.3l173.9,191.9c5.7,6.3,15.6,6.3,21.4,0l173.9-191.9c8.4-9.3,1.8-24.1-10.7-24.1h-70.5
		c-8,0-14.4-6.5-14.4-14.4l-0.1-295.9H271.9l0.1,295.9c0,8-6.5,14.4-14.4,14.4h-70.5C174.7,645.2,168.1,660,176.5,669.3z"/>
</g>
</svg>
